<?xml version="1.0" encoding="UTF-8" standalone="no"?>
<!DOCTYPE svg PUBLIC "-//W3C//DTD SVG 1.1//EN"
 "http://www.w3.org/Graphics/SVG/1.1/DTD/svg11.dtd">
<!-- Generated by graphviz version 2.40.1 (20161225.0304)
 -->
<!-- Title: protodot Pages: 1 -->
<svg width="385pt" height="516pt"
 viewBox="0.00 0.00 385.00 516.00" xmlns="http://www.w3.org/2000/svg" xmlns:xlink="http://www.w3.org/1999/xlink">
<g id="graph0" class="graph" transform="scale(1 1) rotate(0) translate(4 512)">
<title>protodot</title>
<g id="a_graph0"><a xlink:title="account">
<text text-anchor="middle" x="188.5" y="-7.8" font-family="Times,serif" font-size="14.00" fill="#000000">account</text>
</a>
</g>
<!-- Node_Ja_103 -->
<g id="node1" class="node">
<title>Node_Ja_103</title>
<g id="a_node1"><a xlink:title="account.ResetPasswordRequest">
<polygon fill="#fffaf0" stroke="transparent" points="251,-252 251,-299 369,-299 369,-252 251,-252"/>
<polygon fill="#e31a1c" stroke="transparent" points="252,-282.5 252,-297.5 368,-297.5 368,-282.5 252,-282.5"/>
<text text-anchor="start" x="254" y="-288.5" font-family="Ubuntu" font-weight="bold" font-size="10.00" fill="#000000">ResetPasswordRequest</text>
<text text-anchor="start" x="276" y="-272.5" font-family="Ubuntu" font-size="10.00" fill="#000000">1</text>
<text text-anchor="start" x="286" y="-272.5" font-family="Ubuntu" font-size="10.00" fill="#000000">token</text>
<polygon fill="#a6cee3" stroke="transparent" points="335,-267.5 335,-282.5 368,-282.5 368,-267.5 335,-267.5"/>
<text text-anchor="start" x="341" y="-273.5" font-family="Ubuntu" font-style="italic" font-size="10.00" fill="#000000">string</text>
<text text-anchor="start" x="276" y="-257.5" font-family="Ubuntu" font-size="10.00" fill="#000000">2</text>
<text text-anchor="start" x="286" y="-257.5" font-family="Ubuntu" font-size="10.00" fill="#000000">password</text>
<polygon fill="#a6cee3" stroke="transparent" points="335,-252.5 335,-267.5 368,-267.5 368,-252.5 335,-252.5"/>
<text text-anchor="start" x="341" y="-258.5" font-family="Ubuntu" font-style="italic" font-size="10.00" fill="#000000">string</text>
<polygon fill="none" stroke="#000000" points="251,-252 251,-299 369,-299 369,-252 251,-252"/>
</a>
</g>
</g>
<!-- Node_Ja_105 -->
<g id="node2" class="node">
<title>Node_Ja_105</title>
<g id="a_node2"><a xlink:title="AccountService">
<polygon fill="#ffd700" stroke="transparent" points="8,-212 8,-349 199,-349 199,-212 8,-212"/>
<polygon fill="#ff7f50" stroke="transparent" points="9.5,-332.5 9.5,-347.5 198.5,-347.5 198.5,-332.5 9.5,-332.5"/>
<text text-anchor="start" x="120.5" y="-338.5" font-family="Ubuntu" font-weight="bold" font-size="10.00" fill="#000000">AccountService</text>
<text text-anchor="start" x="11.5" y="-323.5" font-family="Ubuntu" font-weight="bold" font-size="10.00" fill="#000000">Signup</text>
<text text-anchor="start" x="129.5" y="-322.5" font-family="Ubuntu" font-size="10.00" fill="#000000">SignupRequest</text>
<polygon fill="#ff7f50" stroke="transparent" points="85.5,-302.5 85.5,-317.5 89.5,-317.5 89.5,-302.5 85.5,-302.5"/>
<polygon fill="#ff7f50" stroke="transparent" points="89.5,-302.5 89.5,-317.5 198.5,-317.5 198.5,-302.5 89.5,-302.5"/>
<text text-anchor="start" x="91.5" y="-307.5" font-family="Ubuntu" font-size="10.00" fill="#000000">google.protobuf.Empty</text>
<text text-anchor="start" x="11.5" y="-293.5" font-family="Ubuntu" font-weight="bold" font-size="10.00" fill="#000000">Signin</text>
<text text-anchor="start" x="133.5" y="-292.5" font-family="Ubuntu" font-size="10.00" fill="#000000">SigninRequest</text>
<polygon fill="#ff7f50" stroke="transparent" points="85.5,-272.5 85.5,-287.5 89.5,-287.5 89.5,-272.5 85.5,-272.5"/>
<polygon fill="#ff7f50" stroke="transparent" points="89.5,-272.5 89.5,-287.5 198.5,-287.5 198.5,-272.5 89.5,-272.5"/>
<text text-anchor="start" x="126.5" y="-277.5" font-family="Ubuntu" font-size="10.00" fill="#000000">SigninResponse</text>
<text text-anchor="start" x="11.5" y="-263.5" font-family="Ubuntu" font-weight="bold" font-size="10.00" fill="#000000">ResetPassword</text>
<text text-anchor="start" x="91.5" y="-262.5" font-family="Ubuntu" font-size="10.00" fill="#000000">ResetPasswordRequest</text>
<polygon fill="#ff7f50" stroke="transparent" points="85.5,-242.5 85.5,-257.5 89.5,-257.5 89.5,-242.5 85.5,-242.5"/>
<polygon fill="#ff7f50" stroke="transparent" points="89.5,-242.5 89.5,-257.5 198.5,-257.5 198.5,-242.5 89.5,-242.5"/>
<text text-anchor="start" x="91.5" y="-247.5" font-family="Ubuntu" font-size="10.00" fill="#000000">google.protobuf.Empty</text>
<text text-anchor="start" x="11.5" y="-233.5" font-family="Ubuntu" font-weight="bold" font-size="10.00" fill="#000000">UserInfo</text>
<text text-anchor="start" x="91.5" y="-232.5" font-family="Ubuntu" font-size="10.00" fill="#000000">google.protobuf.Empty</text>
<polygon fill="#ff7f50" stroke="transparent" points="85.5,-212.5 85.5,-227.5 89.5,-227.5 89.5,-212.5 85.5,-212.5"/>
<polygon fill="#ff7f50" stroke="transparent" points="89.5,-212.5 89.5,-227.5 198.5,-227.5 198.5,-212.5 89.5,-212.5"/>
<text text-anchor="start" x="114.5" y="-217.5" font-family="Ubuntu" font-size="10.00" fill="#000000">UserInfoResponse</text>
<polygon fill="none" stroke="#000000" points="8,-212 8,-349 199,-349 199,-212 8,-212"/>
</a>
</g>
</g>
<!-- Node_Ja_105&#45;&gt;Node_Ja_103 -->
<g id="edge3" class="edge">
<title>Node_Ja_105:e&#45;&gt;Node_Ja_103:header</title>
<g id="a_edge3"><a xlink:title="Ja_105 &#45;&#45;&gt; Ja_103">
<path fill="none" stroke="#000000" d="M198.5,-264.5C221.0127,-264.5 224.8085,-283.3541 241.7646,-288.9514"/>
<polygon fill="#000000" stroke="#000000" points="241.5889,-292.4646 252,-290.5 242.6361,-285.5434 241.5889,-292.4646"/>
</a>
</g>
</g>
<!-- Node_Ja_100 -->
<g id="node3" class="node">
<title>Node_Ja_100</title>
<g id="a_node3"><a xlink:title="account.SignupRequest">
<polygon fill="#fffaf0" stroke="transparent" points="263.5,-457 263.5,-504 356.5,-504 356.5,-457 263.5,-457"/>
<polygon fill="#e31a1c" stroke="transparent" points="265,-487.5 265,-502.5 356,-502.5 356,-487.5 265,-487.5"/>
<text text-anchor="start" x="281" y="-493.5" font-family="Ubuntu" font-weight="bold" font-size="10.00" fill="#000000">SignupRequest</text>
<text text-anchor="start" x="271" y="-477.5" font-family="Ubuntu" font-size="10.00" fill="#000000">1</text>
<text text-anchor="start" x="281" y="-477.5" font-family="Ubuntu" font-size="10.00" fill="#000000">username</text>
<polygon fill="#a6cee3" stroke="transparent" points="327,-472.5 327,-487.5 356,-487.5 356,-472.5 327,-472.5"/>
<text text-anchor="start" x="329" y="-478.5" font-family="Ubuntu" font-style="italic" font-size="10.00" fill="#000000">string</text>
<text text-anchor="start" x="271" y="-462.5" font-family="Ubuntu" font-size="10.00" fill="#000000">2</text>
<text text-anchor="start" x="281" y="-462.5" font-family="Ubuntu" font-size="10.00" fill="#000000">password</text>
<polygon fill="#a6cee3" stroke="transparent" points="327,-457.5 327,-472.5 356,-472.5 356,-457.5 327,-457.5"/>
<text text-anchor="start" x="329" y="-463.5" font-family="Ubuntu" font-style="italic" font-size="10.00" fill="#000000">string</text>
<polygon fill="none" stroke="#000000" points="263.5,-457 263.5,-504 356.5,-504 356.5,-457 263.5,-457"/>
</a>
</g>
</g>
<!-- Node_Ja_105&#45;&gt;Node_Ja_100 -->
<g id="edge7" class="edge">
<title>Node_Ja_105:e&#45;&gt;Node_Ja_100:header</title>
<g id="a_edge7"><a xlink:title="Ja_105 &#45;&#45;&gt; Ja_100">
<path fill="none" stroke="#000000" d="M198.5,-325.5C275.8276,-325.5 192.4583,-479.936 254.7206,-494.4144"/>
<polygon fill="#000000" stroke="#000000" points="254.6877,-497.9303 265,-495.5 255.4229,-490.969 254.6877,-497.9303"/>
</a>
</g>
</g>
<!-- Node_Ja_101 -->
<g id="node4" class="node">
<title>Node_Ja_101</title>
<g id="a_node4"><a xlink:title="account.SigninRequest">
<polygon fill="#fffaf0" stroke="transparent" points="263.5,-384 263.5,-431 356.5,-431 356.5,-384 263.5,-384"/>
<polygon fill="#e31a1c" stroke="transparent" points="265,-414.5 265,-429.5 356,-429.5 356,-414.5 265,-414.5"/>
<text text-anchor="start" x="284" y="-420.5" font-family="Ubuntu" font-weight="bold" font-size="10.00" fill="#000000">SigninRequest</text>
<text text-anchor="start" x="271" y="-404.5" font-family="Ubuntu" font-size="10.00" fill="#000000">1</text>
<text text-anchor="start" x="281" y="-404.5" font-family="Ubuntu" font-size="10.00" fill="#000000">username</text>
<polygon fill="#a6cee3" stroke="transparent" points="327,-399.5 327,-414.5 356,-414.5 356,-399.5 327,-399.5"/>
<text text-anchor="start" x="329" y="-405.5" font-family="Ubuntu" font-style="italic" font-size="10.00" fill="#000000">string</text>
<text text-anchor="start" x="271" y="-389.5" font-family="Ubuntu" font-size="10.00" fill="#000000">2</text>
<text text-anchor="start" x="281" y="-389.5" font-family="Ubuntu" font-size="10.00" fill="#000000">password</text>
<polygon fill="#a6cee3" stroke="transparent" points="327,-384.5 327,-399.5 356,-399.5 356,-384.5 327,-384.5"/>
<text text-anchor="start" x="329" y="-390.5" font-family="Ubuntu" font-style="italic" font-size="10.00" fill="#000000">string</text>
<polygon fill="none" stroke="#000000" points="263.5,-384 263.5,-431 356.5,-431 356.5,-384 263.5,-384"/>
</a>
</g>
</g>
<!-- Node_Ja_105&#45;&gt;Node_Ja_101 -->
<g id="edge1" class="edge">
<title>Node_Ja_105:e&#45;&gt;Node_Ja_101:header</title>
<g id="a_edge1"><a xlink:title="Ja_105 &#45;&#45;&gt; Ja_101">
<path fill="none" stroke="#000000" d="M198.5,-295.5C258.481,-295.5 207.9979,-408.0532 255.0339,-421.243"/>
<polygon fill="#000000" stroke="#000000" points="254.6406,-424.7211 265,-422.5 255.5166,-417.7761 254.6406,-424.7211"/>
</a>
</g>
</g>
<!-- Node_Ja_102 -->
<g id="node5" class="node">
<title>Node_Ja_102</title>
<g id="a_node5"><a xlink:title="account.SigninResponse">
<polygon fill="#fffaf0" stroke="transparent" points="269,-325.5 269,-357.5 351,-357.5 351,-325.5 269,-325.5"/>
<polygon fill="#e31a1c" stroke="transparent" points="270,-341.5 270,-356.5 350,-356.5 350,-341.5 270,-341.5"/>
<text text-anchor="start" x="272" y="-347.5" font-family="Ubuntu" font-weight="bold" font-size="10.00" fill="#000000">SigninResponse</text>
<text text-anchor="start" x="281" y="-331.5" font-family="Ubuntu" font-size="10.00" fill="#000000">1</text>
<text text-anchor="start" x="291" y="-331.5" font-family="Ubuntu" font-size="10.00" fill="#000000">token</text>
<polygon fill="#a6cee3" stroke="transparent" points="320,-326.5 320,-341.5 350,-341.5 350,-326.5 320,-326.5"/>
<text text-anchor="start" x="323" y="-332.5" font-family="Ubuntu" font-style="italic" font-size="10.00" fill="#000000">string</text>
<polygon fill="none" stroke="#000000" points="269,-325.5 269,-357.5 351,-357.5 351,-325.5 269,-325.5"/>
</a>
</g>
</g>
<!-- Node_Ja_105&#45;&gt;Node_Ja_102 -->
<g id="edge2" class="edge">
<title>Node_Ja_105:e&#45;&gt;Node_Ja_102:header</title>
<g id="a_edge2"><a xlink:title="Ja_105 &#45;&#45;&gt; Ja_102">
<path fill="none" stroke="#000000" d="M198.5,-279.5C239.1499,-279.5 228.0692,-337.9857 259.8278,-348.038"/>
<polygon fill="#000000" stroke="#000000" points="259.6037,-351.5416 270,-349.5 260.5997,-344.6128 259.6037,-351.5416"/>
</a>
</g>
</g>
<!-- Node_Ja_110 -->
<g id="node6" class="node">
<title>Node_Ja_110</title>
<g id="a_node6"><a xlink:title="google.protobuf.Empty">
<polygon fill="#d9d9d9" stroke="transparent" points="254.5,-193.5 254.5,-225.5 365.5,-225.5 365.5,-193.5 254.5,-193.5"/>
<polygon fill="#969696" stroke="transparent" points="256,-209.5 256,-224.5 365,-224.5 365,-209.5 256,-209.5"/>
<text text-anchor="start" x="258" y="-214.5" font-family="Ubuntu" font-size="10.00" fill="#000000">google.protobuf.Empty</text>
<polygon fill="#d9d9d9" stroke="transparent" points="256,-194.5 256,-209.5 365,-209.5 365,-194.5 256,-194.5"/>
<text text-anchor="start" x="258" y="-199.5" font-family="Ubuntu" font-size="10.00" fill="#000000">this type is missing</text>
<polygon fill="none" stroke="#000000" points="254.5,-193.5 254.5,-225.5 365.5,-225.5 365.5,-193.5 254.5,-193.5"/>
</a>
</g>
</g>
<!-- Node_Ja_105&#45;&gt;Node_Ja_110 -->
<g id="edge4" class="edge">
<title>Node_Ja_105:e&#45;&gt;Node_Ja_110</title>
<g id="a_edge4"><a xlink:title="Ja_105 &#45;&#45;&gt; Ja_110">
<path fill="none" stroke="#737373" d="M198.5,-249.5C209.9717,-249.5 232.6203,-241.9034 254.5255,-233.3314"/>
<polygon fill="#737373" stroke="#737373" points="255.8426,-236.5742 263.8332,-229.6172 253.2482,-230.0728 255.8426,-236.5742"/>
</a>
</g>
</g>
<!-- Node_Ja_105&#45;&gt;Node_Ja_110 -->
<g id="edge5" class="edge">
<title>Node_Ja_105:e&#45;&gt;Node_Ja_110</title>
<g id="a_edge5"><a xlink:title="Ja_105 &#45;&#45;&gt; Ja_110">
<path fill="none" stroke="#737373" d="M198.5,-234.5C210.8664,-234.5 223.8214,-233.0177 236.3452,-230.775"/>
<polygon fill="#737373" stroke="#737373" points="237.1376,-234.1863 246.277,-228.8271 235.7904,-227.3172 237.1376,-234.1863"/>
</a>
</g>
</g>
<!-- Node_Ja_105&#45;&gt;Node_Ja_110 -->
<g id="edge8" class="edge">
<title>Node_Ja_105:e&#45;&gt;Node_Ja_110</title>
<g id="a_edge8"><a xlink:title="Ja_105 &#45;&#45;&gt; Ja_110">
<path fill="none" stroke="#737373" d="M198.5,-310.5C235.7413,-310.5 214.9028,-263.9431 243,-239.5 244.7188,-238.0048 246.5242,-236.5721 248.3957,-235.2005"/>
<polygon fill="#737373" stroke="#737373" points="250.5252,-237.9893 256.9617,-229.5736 246.682,-232.1386 250.5252,-237.9893"/>
</a>
</g>
</g>
<!-- Node_Ja_104 -->
<g id="node7" class="node">
<title>Node_Ja_104</title>
<g id="a_node7"><a xlink:title="account.UserInfoResponse">
<polygon fill="#fffaf0" stroke="transparent" points="257.5,-27 257.5,-168 362.5,-168 362.5,-27 257.5,-27"/>
<polygon fill="#e31a1c" stroke="transparent" points="259,-151.5 259,-166.5 362,-166.5 362,-151.5 259,-151.5"/>
<text text-anchor="start" x="274" y="-157.5" font-family="Ubuntu" font-weight="bold" font-size="10.00" fill="#000000">UserInfoResponse</text>
<text text-anchor="start" x="265" y="-141.5" font-family="Ubuntu" font-size="10.00" fill="#000000">1</text>
<text text-anchor="start" x="275" y="-141.5" font-family="Ubuntu" font-size="10.00" fill="#000000">username</text>
<polygon fill="#a6cee3" stroke="transparent" points="333,-136.5 333,-151.5 362,-151.5 362,-136.5 333,-136.5"/>
<text text-anchor="start" x="335" y="-142.5" font-family="Ubuntu" font-style="italic" font-size="10.00" fill="#000000">string</text>
<text text-anchor="start" x="265" y="-126.5" font-family="Ubuntu" font-size="10.00" fill="#000000">2</text>
<text text-anchor="start" x="275" y="-126.5" font-family="Ubuntu" font-size="10.00" fill="#000000">email</text>
<polygon fill="#a6cee3" stroke="transparent" points="333,-121.5 333,-136.5 362,-136.5 362,-121.5 333,-121.5"/>
<text text-anchor="start" x="335" y="-127.5" font-family="Ubuntu" font-style="italic" font-size="10.00" fill="#000000">string</text>
<text text-anchor="start" x="265" y="-111.5" font-family="Ubuntu" font-size="10.00" fill="#000000">3</text>
<text text-anchor="start" x="275" y="-111.5" font-family="Ubuntu" font-size="10.00" fill="#000000">name</text>
<polygon fill="#a6cee3" stroke="transparent" points="333,-106.5 333,-121.5 362,-121.5 362,-106.5 333,-106.5"/>
<text text-anchor="start" x="335" y="-112.5" font-family="Ubuntu" font-style="italic" font-size="10.00" fill="#000000">string</text>
<text text-anchor="start" x="265" y="-96.5" font-family="Ubuntu" font-size="10.00" fill="#000000">4</text>
<text text-anchor="start" x="275" y="-96.5" font-family="Ubuntu" font-size="10.00" fill="#000000">given_name</text>
<polygon fill="#a6cee3" stroke="transparent" points="333,-91.5 333,-106.5 362,-106.5 362,-91.5 333,-91.5"/>
<text text-anchor="start" x="335" y="-97.5" font-family="Ubuntu" font-style="italic" font-size="10.00" fill="#000000">string</text>
<text text-anchor="start" x="265" y="-81.5" font-family="Ubuntu" font-size="10.00" fill="#000000">5</text>
<text text-anchor="start" x="275" y="-81.5" font-family="Ubuntu" font-size="10.00" fill="#000000">family_name</text>
<polygon fill="#a6cee3" stroke="transparent" points="333,-76.5 333,-91.5 362,-91.5 362,-76.5 333,-76.5"/>
<text text-anchor="start" x="335" y="-82.5" font-family="Ubuntu" font-style="italic" font-size="10.00" fill="#000000">string</text>
<polygon fill="#fdbf6f" stroke="transparent" points="259,-61.5 259,-76.5 362,-76.5 362,-61.5 259,-61.5"/>
<text text-anchor="start" x="261" y="-66.5" font-family="Ubuntu" font-size="10.00" fill="#000000">picture</text>
<polygon fill="#fdbf6f" stroke="transparent" points="259,-46.5 259,-61.5 263,-61.5 263,-46.5 259,-46.5"/>
<text text-anchor="start" x="265" y="-51.5" font-family="Ubuntu" font-size="10.00" fill="#000000">6</text>
<text text-anchor="start" x="275" y="-51.5" font-family="Ubuntu" font-size="10.00" fill="#000000">data</text>
<polygon fill="#a6cee3" stroke="transparent" points="333,-46.5 333,-61.5 362,-61.5 362,-46.5 333,-46.5"/>
<text text-anchor="start" x="337" y="-52.5" font-family="Ubuntu" font-style="italic" font-size="10.00" fill="#000000">bytes</text>
<polygon fill="#fdbf6f" stroke="transparent" points="259,-31.5 259,-46.5 263,-46.5 263,-31.5 259,-31.5"/>
<text text-anchor="start" x="265" y="-36.5" font-family="Ubuntu" font-size="10.00" fill="#000000">7</text>
<text text-anchor="start" x="275" y="-36.5" font-family="Ubuntu" font-size="10.00" fill="#000000">uri</text>
<polygon fill="#a6cee3" stroke="transparent" points="333,-31.5 333,-46.5 362,-46.5 362,-31.5 333,-31.5"/>
<text text-anchor="start" x="335" y="-37.5" font-family="Ubuntu" font-style="italic" font-size="10.00" fill="#000000">string</text>
<polygon fill="#fdbf6f" stroke="transparent" points="259,-27.5 259,-31.5 362,-31.5 362,-27.5 259,-27.5"/>
<polygon fill="none" stroke="#000000" points="257.5,-27 257.5,-168 362.5,-168 362.5,-27 257.5,-27"/>
</a>
</g>
</g>
<!-- Node_Ja_105&#45;&gt;Node_Ja_104 -->
<g id="edge6" class="edge">
<title>Node_Ja_105:e&#45;&gt;Node_Ja_104:header</title>
<g id="a_edge6"><a xlink:title="Ja_105 &#45;&#45;&gt; Ja_104">
<path fill="none" stroke="#000000" d="M198.5,-219.5C232.5237,-219.5 223.6779,-171.0686 248.9937,-161.231"/>
<polygon fill="#000000" stroke="#000000" points="249.743,-164.6534 259,-159.5 248.5497,-157.7559 249.743,-164.6534"/>
</a>
</g>
</g>
</g>
</svg>
