<?xml version="1.0" encoding="UTF-8" standalone="no"?>
<!DOCTYPE svg PUBLIC "-//W3C//DTD SVG 1.1//EN"
 "http://www.w3.org/Graphics/SVG/1.1/DTD/svg11.dtd">
<!-- Generated by graphviz version 2.40.1 (20161225.0304)
 -->
<!-- Title: protodot Pages: 1 -->
<svg width="1078pt" height="496pt"
 viewBox="0.00 0.00 1078.00 496.00" xmlns="http://www.w3.org/2000/svg" xmlns:xlink="http://www.w3.org/1999/xlink">
<g id="graph0" class="graph" transform="scale(1 1) rotate(0) translate(4 492)">
<title>protodot</title>
<g id="a_graph0"><a xlink:title="email">
<text text-anchor="middle" x="535" y="-7.8" font-family="Times,serif" font-size="14.00" fill="#000000">email</text>
</a>
</g>
<!-- Node_Ja_102 -->
<g id="node1" class="node">
<title>Node_Ja_102</title>
<g id="a_node1"><a xlink:title="email.Email">
<polygon fill="#fffaf0" stroke="transparent" points="443,-211.5 443,-318.5 654,-318.5 654,-211.5 443,-211.5"/>
<polygon fill="#e31a1c" stroke="transparent" points="444.5,-302 444.5,-317 653.5,-317 653.5,-302 444.5,-302"/>
<text text-anchor="start" x="625.5" y="-308" font-family="Ubuntu" font-weight="bold" font-size="10.00" fill="#000000">Email</text>
<text text-anchor="start" x="455.5" y="-292" font-family="Ubuntu" font-size="10.00" fill="#000000">1</text>
<text text-anchor="start" x="465.5" y="-292" font-family="Ubuntu" font-size="10.00" fill="#000000">id</text>
<polygon fill="#a6cee3" stroke="transparent" points="519.5,-287 519.5,-302 653.5,-302 653.5,-287 519.5,-287"/>
<text text-anchor="start" x="623.5" y="-293" font-family="Ubuntu" font-style="italic" font-size="10.00" fill="#000000">uint64</text>
<text text-anchor="start" x="450.5" y="-277" font-family="Ubuntu" font-size="10.00" fill="#000000">10</text>
<text text-anchor="start" x="465.5" y="-277" font-family="Ubuntu" font-size="10.00" fill="#000000">envelope</text>
<polygon fill="#fb9a99" stroke="transparent" points="519.5,-272 519.5,-287 653.5,-287 653.5,-272 519.5,-272"/>
<text text-anchor="start" x="606.5" y="-278" font-family="Ubuntu" font-weight="bold" font-size="10.00" fill="#000000">Envelope</text>
<text text-anchor="start" x="450.5" y="-262" font-family="Ubuntu" font-size="10.00" fill="#000000">11</text>
<text text-anchor="start" x="465.5" y="-262" font-family="Ubuntu" font-size="10.00" fill="#000000">sent_at</text>
<polygon fill="#bdbdbd" stroke="transparent" points="519.5,-257 519.5,-272 653.5,-272 653.5,-257 519.5,-257"/>
<text text-anchor="start" x="521.5" y="-263" font-family="Ubuntu" font-weight="bold" font-size="10.00" fill="#000000">google.protobuf.Timestamp</text>
<text text-anchor="start" x="450.5" y="-247" font-family="Ubuntu" font-size="10.00" fill="#000000">12</text>
<text text-anchor="start" x="465.5" y="-247" font-family="Ubuntu" font-size="10.00" fill="#000000">received_at</text>
<polygon fill="#bdbdbd" stroke="transparent" points="519.5,-242 519.5,-257 653.5,-257 653.5,-242 519.5,-242"/>
<text text-anchor="start" x="521.5" y="-248" font-family="Ubuntu" font-weight="bold" font-size="10.00" fill="#000000">google.protobuf.Timestamp</text>
<text text-anchor="start" x="450.5" y="-232" font-family="Ubuntu" font-size="10.00" fill="#000000">13</text>
<text text-anchor="start" x="465.5" y="-232" font-family="Ubuntu" font-size="10.00" fill="#000000">snoozed_at</text>
<polygon fill="#bdbdbd" stroke="transparent" points="519.5,-227 519.5,-242 653.5,-242 653.5,-227 519.5,-227"/>
<text text-anchor="start" x="521.5" y="-233" font-family="Ubuntu" font-weight="bold" font-size="10.00" fill="#000000">google.protobuf.Timestamp</text>
<text text-anchor="start" x="450.5" y="-217" font-family="Ubuntu" font-size="10.00" fill="#000000">14</text>
<text text-anchor="start" x="465.5" y="-217" font-family="Ubuntu" font-size="10.00" fill="#000000">fwd</text>
<polygon fill="#a6cee3" stroke="transparent" points="519.5,-212 519.5,-227 653.5,-227 653.5,-212 519.5,-212"/>
<text text-anchor="start" x="632.5" y="-218" font-family="Ubuntu" font-style="italic" font-size="10.00" fill="#000000">bool</text>
<polygon fill="none" stroke="#000000" points="443,-211.5 443,-318.5 654,-318.5 654,-211.5 443,-211.5"/>
</a>
</g>
</g>
<!-- Node_Ja_103 -->
<g id="node2" class="node">
<title>Node_Ja_103</title>
<g id="a_node2"><a xlink:title="email.Envelope">
<polygon fill="#fffaf0" stroke="transparent" points="706,-283.5 706,-420.5 889,-420.5 889,-283.5 706,-283.5"/>
<polygon fill="#e31a1c" stroke="transparent" points="707.5,-404 707.5,-419 888.5,-419 888.5,-404 707.5,-404"/>
<text text-anchor="start" x="841.5" y="-410" font-family="Ubuntu" font-weight="bold" font-size="10.00" fill="#000000">Envelope</text>
<text text-anchor="start" x="731.5" y="-394" font-family="Ubuntu" font-size="10.00" fill="#000000">1</text>
<text text-anchor="start" x="741.5" y="-394" font-family="Ubuntu" font-size="10.00" fill="#000000">id</text>
<polygon fill="#a6cee3" stroke="transparent" points="798.5,-389 798.5,-404 888.5,-404 888.5,-389 798.5,-389"/>
<text text-anchor="start" x="858.5" y="-395" font-family="Ubuntu" font-style="italic" font-size="10.00" fill="#000000">uint64</text>
<text text-anchor="start" x="726.5" y="-379" font-family="Ubuntu" font-size="10.00" fill="#000000">10</text>
<text text-anchor="start" x="741.5" y="-379" font-family="Ubuntu" font-size="10.00" fill="#000000">from</text>
<polygon fill="#fb9a99" stroke="transparent" points="798.5,-374 798.5,-389 888.5,-389 888.5,-374 798.5,-374"/>
<text text-anchor="start" x="852.5" y="-380" font-family="Ubuntu" font-weight="bold" font-size="10.00" fill="#000000">Sender</text>
<text text-anchor="start" x="709.5" y="-364" font-family="Ubuntu" font-size="10.00" fill="#000000">[...]</text>
<text text-anchor="start" x="726.5" y="-364" font-family="Ubuntu" font-size="10.00" fill="#000000">11</text>
<text text-anchor="start" x="741.5" y="-364" font-family="Ubuntu" font-size="10.00" fill="#000000">to</text>
<polygon fill="#fb9a99" stroke="transparent" points="798.5,-359 798.5,-374 888.5,-374 888.5,-359 798.5,-359"/>
<text text-anchor="start" x="839.5" y="-365" font-family="Ubuntu" font-weight="bold" font-size="10.00" fill="#000000">Recipient</text>
<text text-anchor="start" x="709.5" y="-349" font-family="Ubuntu" font-size="10.00" fill="#000000">[...]</text>
<text text-anchor="start" x="726.5" y="-349" font-family="Ubuntu" font-size="10.00" fill="#000000">12</text>
<text text-anchor="start" x="741.5" y="-349" font-family="Ubuntu" font-size="10.00" fill="#000000">cc</text>
<polygon fill="#fb9a99" stroke="transparent" points="798.5,-344 798.5,-359 888.5,-359 888.5,-344 798.5,-344"/>
<text text-anchor="start" x="839.5" y="-350" font-family="Ubuntu" font-weight="bold" font-size="10.00" fill="#000000">Recipient</text>
<text text-anchor="start" x="709.5" y="-334" font-family="Ubuntu" font-size="10.00" fill="#000000">[...]</text>
<text text-anchor="start" x="726.5" y="-334" font-family="Ubuntu" font-size="10.00" fill="#000000">13</text>
<text text-anchor="start" x="741.5" y="-334" font-family="Ubuntu" font-size="10.00" fill="#000000">bcc</text>
<polygon fill="#fb9a99" stroke="transparent" points="798.5,-329 798.5,-344 888.5,-344 888.5,-329 798.5,-329"/>
<text text-anchor="start" x="839.5" y="-335" font-family="Ubuntu" font-weight="bold" font-size="10.00" fill="#000000">Recipient</text>
<text text-anchor="start" x="726.5" y="-319" font-family="Ubuntu" font-size="10.00" fill="#000000">14</text>
<text text-anchor="start" x="741.5" y="-319" font-family="Ubuntu" font-size="10.00" fill="#000000">tags</text>
<polygon fill="#a6cee3" stroke="transparent" points="798.5,-314 798.5,-329 888.5,-329 888.5,-314 798.5,-314"/>
<text text-anchor="start" x="800.5" y="-320" font-family="Ubuntu" font-size="10.00" fill="#000000">map&lt;string, </text>
<text text-anchor="start" x="855.5" y="-320" font-family="Ubuntu" font-style="italic" font-size="10.00" fill="#000000">string</text>
<text text-anchor="start" x="880.5" y="-320" font-family="Ubuntu" font-size="10.00" fill="#000000">&gt;</text>
<text text-anchor="start" x="726.5" y="-304" font-family="Ubuntu" font-size="10.00" fill="#000000">15</text>
<text text-anchor="start" x="741.5" y="-304" font-family="Ubuntu" font-size="10.00" fill="#000000">message</text>
<polygon fill="#fb9a99" stroke="transparent" points="798.5,-299 798.5,-314 888.5,-314 888.5,-299 798.5,-299"/>
<text text-anchor="start" x="844.5" y="-305" font-family="Ubuntu" font-weight="bold" font-size="10.00" fill="#000000">Message</text>
<text text-anchor="start" x="709.5" y="-289" font-family="Ubuntu" font-size="10.00" fill="#000000">[...]</text>
<text text-anchor="start" x="726.5" y="-289" font-family="Ubuntu" font-size="10.00" fill="#000000">16</text>
<text text-anchor="start" x="741.5" y="-289" font-family="Ubuntu" font-size="10.00" fill="#000000">attachments</text>
<polygon fill="#fb9a99" stroke="transparent" points="798.5,-284 798.5,-299 888.5,-299 888.5,-284 798.5,-284"/>
<text text-anchor="start" x="828.5" y="-290" font-family="Ubuntu" font-weight="bold" font-size="10.00" fill="#000000">Attachment</text>
<polygon fill="none" stroke="#000000" points="706,-283.5 706,-420.5 889,-420.5 889,-283.5 706,-283.5"/>
</a>
</g>
</g>
<!-- Node_Ja_102&#45;&gt;Node_Ja_103 -->
<g id="edge16" class="edge">
<title>Node_Ja_102:e&#45;&gt;Node_Ja_103:header</title>
<g id="a_edge16"><a xlink:title="Ja_102 &#45;&#45;&gt; Ja_103">
<path fill="none" stroke="#000000" d="M653.5,-280C713.0481,-280 652.4271,-396.4995 697.4235,-410.6069"/>
<polygon fill="#000000" stroke="#000000" points="697.1149,-414.0974 707.5,-412 698.0736,-407.1634 697.1149,-414.0974"/>
</a>
</g>
</g>
<!-- Node_Ja_120 -->
<g id="node4" class="node">
<title>Node_Ja_120</title>
<g id="a_node4"><a xlink:title="google.protobuf.Timestamp">
<polygon fill="#d9d9d9" stroke="transparent" points="732,-225 732,-257 863,-257 863,-225 732,-225"/>
<polygon fill="#969696" stroke="transparent" points="733.5,-241 733.5,-256 862.5,-256 862.5,-241 733.5,-241"/>
<text text-anchor="start" x="735.5" y="-246" font-family="Ubuntu" font-size="10.00" fill="#000000">google.protobuf.Timestamp</text>
<polygon fill="#d9d9d9" stroke="transparent" points="733.5,-226 733.5,-241 862.5,-241 862.5,-226 733.5,-226"/>
<text text-anchor="start" x="735.5" y="-231" font-family="Ubuntu" font-size="10.00" fill="#000000">this type is missing</text>
<polygon fill="none" stroke="#000000" points="732,-225 732,-257 863,-257 863,-225 732,-225"/>
</a>
</g>
</g>
<!-- Node_Ja_102&#45;&gt;Node_Ja_120 -->
<g id="edge1" class="edge">
<title>Node_Ja_102:e&#45;&gt;Node_Ja_120</title>
<g id="a_edge1"><a xlink:title="Ja_102 &#45;&#45;&gt; Ja_120">
<path fill="none" stroke="#737373" d="M653.5,-264C673.2086,-264 694.2467,-261.8731 713.9833,-258.9129"/>
<polygon fill="#737373" stroke="#737373" points="714.5336,-262.3695 723.8626,-257.3474 713.438,-255.4558 714.5336,-262.3695"/>
</a>
</g>
</g>
<!-- Node_Ja_102&#45;&gt;Node_Ja_120 -->
<g id="edge17" class="edge">
<title>Node_Ja_102:e&#45;&gt;Node_Ja_120</title>
<g id="a_edge17"><a xlink:title="Ja_102 &#45;&#45;&gt; Ja_120">
<path fill="none" stroke="#737373" d="M653.5,-249C673.0095,-249 693.983,-248.2589 713.7219,-247.2278"/>
<polygon fill="#737373" stroke="#737373" points="714.1256,-250.7109 723.9173,-246.6646 713.7394,-243.7216 714.1256,-250.7109"/>
</a>
</g>
</g>
<!-- Node_Ja_102&#45;&gt;Node_Ja_120 -->
<g id="edge18" class="edge">
<title>Node_Ja_102:e&#45;&gt;Node_Ja_120</title>
<g id="a_edge18"><a xlink:title="Ja_102 &#45;&#45;&gt; Ja_120">
<path fill="none" stroke="#737373" d="M653.5,-234C673.0025,-234 693.9732,-234.6485 713.7117,-235.5507"/>
<polygon fill="#737373" stroke="#737373" points="713.7497,-239.0565 723.907,-236.0435 714.0877,-232.0647 713.7497,-239.0565"/>
</a>
</g>
</g>
<!-- Node_Ja_100 -->
<g id="node5" class="node">
<title>Node_Ja_100</title>
<g id="a_node5"><a xlink:title="email.Sender">
<polygon fill="#fffaf0" stroke="transparent" points="941,-393 941,-455 1062,-455 1062,-393 941,-393"/>
<polygon fill="#e31a1c" stroke="transparent" points="942.5,-439 942.5,-454 1061.5,-454 1061.5,-439 942.5,-439"/>
<text text-anchor="start" x="1025.5" y="-445" font-family="Ubuntu" font-weight="bold" font-size="10.00" fill="#000000">Sender</text>
<text text-anchor="start" x="953.5" y="-429" font-family="Ubuntu" font-size="10.00" fill="#000000">1</text>
<text text-anchor="start" x="963.5" y="-429" font-family="Ubuntu" font-size="10.00" fill="#000000">id</text>
<polygon fill="#a6cee3" stroke="transparent" points="1029.5,-424 1029.5,-439 1061.5,-439 1061.5,-424 1029.5,-424"/>
<text text-anchor="start" x="1031.5" y="-430" font-family="Ubuntu" font-style="italic" font-size="10.00" fill="#000000">uint64</text>
<text text-anchor="start" x="948.5" y="-414" font-family="Ubuntu" font-size="10.00" fill="#000000">10</text>
<text text-anchor="start" x="963.5" y="-414" font-family="Ubuntu" font-size="10.00" fill="#000000">email_address</text>
<polygon fill="#a6cee3" stroke="transparent" points="1029.5,-409 1029.5,-424 1061.5,-424 1061.5,-409 1029.5,-409"/>
<text text-anchor="start" x="1034.5" y="-415" font-family="Ubuntu" font-style="italic" font-size="10.00" fill="#000000">string</text>
<text text-anchor="start" x="948.5" y="-399" font-family="Ubuntu" font-size="10.00" fill="#000000">11</text>
<text text-anchor="start" x="963.5" y="-399" font-family="Ubuntu" font-size="10.00" fill="#000000">display_name</text>
<polygon fill="#a6cee3" stroke="transparent" points="1029.5,-394 1029.5,-409 1061.5,-409 1061.5,-394 1029.5,-394"/>
<text text-anchor="start" x="1034.5" y="-400" font-family="Ubuntu" font-style="italic" font-size="10.00" fill="#000000">string</text>
<polygon fill="none" stroke="#000000" points="941,-393 941,-455 1062,-455 1062,-393 941,-393"/>
</a>
</g>
</g>
<!-- Node_Ja_103&#45;&gt;Node_Ja_100 -->
<g id="edge19" class="edge">
<title>Node_Ja_103:e&#45;&gt;Node_Ja_100:header</title>
<g id="a_edge19"><a xlink:title="Ja_103 &#45;&#45;&gt; Ja_100">
<path fill="none" stroke="#000000" d="M888.5,-382C922.0964,-382 908.7438,-434.0121 932.4369,-444.9834"/>
<polygon fill="#000000" stroke="#000000" points="932.0072,-448.4668 942.5,-447 933.3827,-441.6033 932.0072,-448.4668"/>
</a>
</g>
</g>
<!-- Node_Ja_104 -->
<g id="node6" class="node">
<title>Node_Ja_104</title>
<g id="a_node6"><a xlink:title="email.Message">
<polygon fill="#fffaf0" stroke="transparent" points="951,-167.5 951,-278.5 1052,-278.5 1052,-167.5 951,-167.5"/>
<polygon fill="#e31a1c" stroke="transparent" points="952.5,-262 952.5,-277 1051.5,-277 1051.5,-262 952.5,-262"/>
<text text-anchor="start" x="1007.5" y="-268" font-family="Ubuntu" font-weight="bold" font-size="10.00" fill="#000000">Message</text>
<text text-anchor="start" x="963.5" y="-252" font-family="Ubuntu" font-size="10.00" fill="#000000">1</text>
<text text-anchor="start" x="973.5" y="-252" font-family="Ubuntu" font-size="10.00" fill="#000000">id</text>
<polygon fill="#a6cee3" stroke="transparent" points="1019.5,-247 1019.5,-262 1051.5,-262 1051.5,-247 1019.5,-247"/>
<text text-anchor="start" x="1021.5" y="-253" font-family="Ubuntu" font-style="italic" font-size="10.00" fill="#000000">uint64</text>
<text text-anchor="start" x="958.5" y="-237" font-family="Ubuntu" font-size="10.00" fill="#000000">10</text>
<text text-anchor="start" x="973.5" y="-237" font-family="Ubuntu" font-size="10.00" fill="#000000">subject</text>
<polygon fill="#a6cee3" stroke="transparent" points="1019.5,-232 1019.5,-247 1051.5,-247 1051.5,-232 1019.5,-232"/>
<text text-anchor="start" x="1024.5" y="-238" font-family="Ubuntu" font-style="italic" font-size="10.00" fill="#000000">string</text>
<text text-anchor="start" x="958.5" y="-222" font-family="Ubuntu" font-size="10.00" fill="#000000">11</text>
<text text-anchor="start" x="973.5" y="-222" font-family="Ubuntu" font-size="10.00" fill="#000000">mimetype</text>
<polygon fill="#a6cee3" stroke="transparent" points="1019.5,-217 1019.5,-232 1051.5,-232 1051.5,-217 1019.5,-217"/>
<text text-anchor="start" x="1024.5" y="-223" font-family="Ubuntu" font-style="italic" font-size="10.00" fill="#000000">string</text>
<polygon fill="#fdbf6f" stroke="transparent" points="952.5,-202 952.5,-217 1051.5,-217 1051.5,-202 952.5,-202"/>
<text text-anchor="start" x="954.5" y="-207" font-family="Ubuntu" font-size="10.00" fill="#000000">body</text>
<polygon fill="#fdbf6f" stroke="transparent" points="952.5,-187 952.5,-202 956.5,-202 956.5,-187 952.5,-187"/>
<text text-anchor="start" x="958.5" y="-192" font-family="Ubuntu" font-size="10.00" fill="#000000">12</text>
<text text-anchor="start" x="973.5" y="-192" font-family="Ubuntu" font-size="10.00" fill="#000000">data</text>
<polygon fill="#a6cee3" stroke="transparent" points="1019.5,-187 1019.5,-202 1051.5,-202 1051.5,-187 1019.5,-187"/>
<text text-anchor="start" x="1026.5" y="-193" font-family="Ubuntu" font-style="italic" font-size="10.00" fill="#000000">bytes</text>
<polygon fill="#fdbf6f" stroke="transparent" points="952.5,-172 952.5,-187 956.5,-187 956.5,-172 952.5,-172"/>
<text text-anchor="start" x="958.5" y="-177" font-family="Ubuntu" font-size="10.00" fill="#000000">13</text>
<text text-anchor="start" x="973.5" y="-177" font-family="Ubuntu" font-size="10.00" fill="#000000">uri</text>
<polygon fill="#a6cee3" stroke="transparent" points="1019.5,-172 1019.5,-187 1051.5,-187 1051.5,-172 1019.5,-172"/>
<text text-anchor="start" x="1024.5" y="-178" font-family="Ubuntu" font-style="italic" font-size="10.00" fill="#000000">string</text>
<polygon fill="#fdbf6f" stroke="transparent" points="952.5,-168 952.5,-172 1051.5,-172 1051.5,-168 952.5,-168"/>
<polygon fill="none" stroke="#000000" points="951,-167.5 951,-278.5 1052,-278.5 1052,-167.5 951,-167.5"/>
</a>
</g>
</g>
<!-- Node_Ja_103&#45;&gt;Node_Ja_104 -->
<g id="edge4" class="edge">
<title>Node_Ja_103:e&#45;&gt;Node_Ja_104:header</title>
<g id="a_edge4"><a xlink:title="Ja_103 &#45;&#45;&gt; Ja_104">
<path fill="none" stroke="#000000" d="M888.5,-306C917.3112,-306 919.6967,-277.9431 942.3143,-271.3673"/>
<polygon fill="#000000" stroke="#000000" points="943.0546,-274.7994 952.5,-270 942.1232,-267.8616 943.0546,-274.7994"/>
</a>
</g>
</g>
<!-- Node_Ja_101 -->
<g id="node12" class="node">
<title>Node_Ja_101</title>
<g id="a_node12"><a xlink:title="email.Recipient">
<polygon fill="#fffaf0" stroke="transparent" points="941,-305 941,-367 1062,-367 1062,-305 941,-305"/>
<polygon fill="#e31a1c" stroke="transparent" points="942.5,-351 942.5,-366 1061.5,-366 1061.5,-351 942.5,-351"/>
<text text-anchor="start" x="1012.5" y="-357" font-family="Ubuntu" font-weight="bold" font-size="10.00" fill="#000000">Recipient</text>
<text text-anchor="start" x="953.5" y="-341" font-family="Ubuntu" font-size="10.00" fill="#000000">1</text>
<text text-anchor="start" x="963.5" y="-341" font-family="Ubuntu" font-size="10.00" fill="#000000">id</text>
<polygon fill="#a6cee3" stroke="transparent" points="1029.5,-336 1029.5,-351 1061.5,-351 1061.5,-336 1029.5,-336"/>
<text text-anchor="start" x="1031.5" y="-342" font-family="Ubuntu" font-style="italic" font-size="10.00" fill="#000000">uint64</text>
<text text-anchor="start" x="948.5" y="-326" font-family="Ubuntu" font-size="10.00" fill="#000000">10</text>
<text text-anchor="start" x="963.5" y="-326" font-family="Ubuntu" font-size="10.00" fill="#000000">email_address</text>
<polygon fill="#a6cee3" stroke="transparent" points="1029.5,-321 1029.5,-336 1061.5,-336 1061.5,-321 1029.5,-321"/>
<text text-anchor="start" x="1034.5" y="-327" font-family="Ubuntu" font-style="italic" font-size="10.00" fill="#000000">string</text>
<text text-anchor="start" x="948.5" y="-311" font-family="Ubuntu" font-size="10.00" fill="#000000">11</text>
<text text-anchor="start" x="963.5" y="-311" font-family="Ubuntu" font-size="10.00" fill="#000000">display_name</text>
<polygon fill="#a6cee3" stroke="transparent" points="1029.5,-306 1029.5,-321 1061.5,-321 1061.5,-306 1029.5,-306"/>
<text text-anchor="start" x="1034.5" y="-312" font-family="Ubuntu" font-style="italic" font-size="10.00" fill="#000000">string</text>
<polygon fill="none" stroke="#000000" points="941,-305 941,-367 1062,-367 1062,-305 941,-305"/>
</a>
</g>
</g>
<!-- Node_Ja_103&#45;&gt;Node_Ja_101 -->
<g id="edge2" class="edge">
<title>Node_Ja_103:e&#45;&gt;Node_Ja_101:header</title>
<g id="a_edge2"><a xlink:title="Ja_103 &#45;&#45;&gt; Ja_101">
<path fill="none" stroke="#000000" d="M888.5,-367C908.971,-367 916.0681,-361.3047 932.3598,-359.5249"/>
<polygon fill="#000000" stroke="#000000" points="932.6943,-363.0124 942.5,-359 932.3324,-356.0217 932.6943,-363.0124"/>
</a>
</g>
</g>
<!-- Node_Ja_103&#45;&gt;Node_Ja_101 -->
<g id="edge3" class="edge">
<title>Node_Ja_103:e&#45;&gt;Node_Ja_101:header</title>
<g id="a_edge3"><a xlink:title="Ja_103 &#45;&#45;&gt; Ja_101">
<path fill="none" stroke="#000000" d="M888.5,-351C908.971,-351 916.0681,-356.6953 932.3598,-358.4751"/>
<polygon fill="#000000" stroke="#000000" points="932.3324,-361.9783 942.5,-359 932.6943,-354.9876 932.3324,-361.9783"/>
</a>
</g>
</g>
<!-- Node_Ja_103&#45;&gt;Node_Ja_101 -->
<g id="edge20" class="edge">
<title>Node_Ja_103:e&#45;&gt;Node_Ja_101:header</title>
<g id="a_edge20"><a xlink:title="Ja_103 &#45;&#45;&gt; Ja_101">
<path fill="none" stroke="#000000" d="M888.5,-336C910.7141,-336 915.3367,-352.6786 932.3283,-357.6301"/>
<polygon fill="#000000" stroke="#000000" points="932.1223,-361.1339 942.5,-359 933.0566,-354.1965 932.1223,-361.1339"/>
</a>
</g>
</g>
<!-- Node_Ja_105 -->
<g id="node13" class="node">
<title>Node_Ja_105</title>
<g id="a_node13"><a xlink:title="email.Attachment">
<polygon fill="#fffaf0" stroke="transparent" points="951,-30.5 951,-141.5 1052,-141.5 1052,-30.5 951,-30.5"/>
<polygon fill="#e31a1c" stroke="transparent" points="952.5,-125 952.5,-140 1051.5,-140 1051.5,-125 952.5,-125"/>
<text text-anchor="start" x="991.5" y="-131" font-family="Ubuntu" font-weight="bold" font-size="10.00" fill="#000000">Attachment</text>
<text text-anchor="start" x="963.5" y="-115" font-family="Ubuntu" font-size="10.00" fill="#000000">1</text>
<text text-anchor="start" x="973.5" y="-115" font-family="Ubuntu" font-size="10.00" fill="#000000">id</text>
<polygon fill="#a6cee3" stroke="transparent" points="1019.5,-110 1019.5,-125 1051.5,-125 1051.5,-110 1019.5,-110"/>
<text text-anchor="start" x="1021.5" y="-116" font-family="Ubuntu" font-style="italic" font-size="10.00" fill="#000000">uint64</text>
<text text-anchor="start" x="958.5" y="-100" font-family="Ubuntu" font-size="10.00" fill="#000000">10</text>
<text text-anchor="start" x="973.5" y="-100" font-family="Ubuntu" font-size="10.00" fill="#000000">filename</text>
<polygon fill="#a6cee3" stroke="transparent" points="1019.5,-95 1019.5,-110 1051.5,-110 1051.5,-95 1019.5,-95"/>
<text text-anchor="start" x="1024.5" y="-101" font-family="Ubuntu" font-style="italic" font-size="10.00" fill="#000000">string</text>
<text text-anchor="start" x="958.5" y="-85" font-family="Ubuntu" font-size="10.00" fill="#000000">11</text>
<text text-anchor="start" x="973.5" y="-85" font-family="Ubuntu" font-size="10.00" fill="#000000">mimetype</text>
<polygon fill="#a6cee3" stroke="transparent" points="1019.5,-80 1019.5,-95 1051.5,-95 1051.5,-80 1019.5,-80"/>
<text text-anchor="start" x="1024.5" y="-86" font-family="Ubuntu" font-style="italic" font-size="10.00" fill="#000000">string</text>
<polygon fill="#fdbf6f" stroke="transparent" points="952.5,-65 952.5,-80 1051.5,-80 1051.5,-65 952.5,-65"/>
<text text-anchor="start" x="954.5" y="-70" font-family="Ubuntu" font-size="10.00" fill="#000000">content</text>
<polygon fill="#fdbf6f" stroke="transparent" points="952.5,-50 952.5,-65 956.5,-65 956.5,-50 952.5,-50"/>
<text text-anchor="start" x="958.5" y="-55" font-family="Ubuntu" font-size="10.00" fill="#000000">12</text>
<text text-anchor="start" x="973.5" y="-55" font-family="Ubuntu" font-size="10.00" fill="#000000">data</text>
<polygon fill="#a6cee3" stroke="transparent" points="1019.5,-50 1019.5,-65 1051.5,-65 1051.5,-50 1019.5,-50"/>
<text text-anchor="start" x="1026.5" y="-56" font-family="Ubuntu" font-style="italic" font-size="10.00" fill="#000000">bytes</text>
<polygon fill="#fdbf6f" stroke="transparent" points="952.5,-35 952.5,-50 956.5,-50 956.5,-35 952.5,-35"/>
<text text-anchor="start" x="958.5" y="-40" font-family="Ubuntu" font-size="10.00" fill="#000000">13</text>
<text text-anchor="start" x="973.5" y="-40" font-family="Ubuntu" font-size="10.00" fill="#000000">uri</text>
<polygon fill="#a6cee3" stroke="transparent" points="1019.5,-35 1019.5,-50 1051.5,-50 1051.5,-35 1019.5,-35"/>
<text text-anchor="start" x="1024.5" y="-41" font-family="Ubuntu" font-style="italic" font-size="10.00" fill="#000000">string</text>
<polygon fill="#fdbf6f" stroke="transparent" points="952.5,-31 952.5,-35 1051.5,-35 1051.5,-31 952.5,-31"/>
<polygon fill="none" stroke="#000000" points="951,-30.5 951,-141.5 1052,-141.5 1052,-30.5 951,-30.5"/>
</a>
</g>
</g>
<!-- Node_Ja_103&#45;&gt;Node_Ja_105 -->
<g id="edge21" class="edge">
<title>Node_Ja_103:e&#45;&gt;Node_Ja_105:header</title>
<g id="a_edge21"><a xlink:title="Ja_103 &#45;&#45;&gt; Ja_105">
<path fill="none" stroke="#000000" d="M888.5,-291C960.565,-291 884.894,-148.053 942.5316,-134.0933"/>
<polygon fill="#000000" stroke="#000000" points="942.9412,-137.5695 952.5,-133 942.178,-130.6112 942.9412,-137.5695"/>
</a>
</g>
</g>
<!-- Node_Ja_109 -->
<g id="node3" class="node">
<title>Node_Ja_109</title>
<g id="a_node3"><a xlink:title="email.UpdateEmailRequest">
<polygon fill="#fffaf0" stroke="transparent" points="257,-246.5 257,-293.5 363,-293.5 363,-246.5 257,-246.5"/>
<polygon fill="#e31a1c" stroke="transparent" points="258,-277 258,-292 362,-292 362,-277 258,-277"/>
<text text-anchor="start" x="260" y="-283" font-family="Ubuntu" font-weight="bold" font-size="10.00" fill="#000000">UpdateEmailRequest</text>
<text text-anchor="start" x="276" y="-267" font-family="Ubuntu" font-size="10.00" fill="#000000">1</text>
<text text-anchor="start" x="286" y="-267" font-family="Ubuntu" font-size="10.00" fill="#000000">email_id</text>
<polygon fill="#a6cee3" stroke="transparent" points="327,-262 327,-277 362,-277 362,-262 327,-262"/>
<text text-anchor="start" x="332" y="-268" font-family="Ubuntu" font-style="italic" font-size="10.00" fill="#000000">uint64</text>
<text text-anchor="start" x="276" y="-252" font-family="Ubuntu" font-size="10.00" fill="#000000">2</text>
<text text-anchor="start" x="286" y="-252" font-family="Ubuntu" font-size="10.00" fill="#000000">email</text>
<polygon fill="#fb9a99" stroke="transparent" points="327,-247 327,-262 362,-262 362,-247 327,-247"/>
<text text-anchor="start" x="334" y="-253" font-family="Ubuntu" font-weight="bold" font-size="10.00" fill="#000000">Email</text>
<polygon fill="none" stroke="#000000" points="257,-246.5 257,-293.5 363,-293.5 363,-246.5 257,-246.5"/>
</a>
</g>
</g>
<!-- Node_Ja_109&#45;&gt;Node_Ja_102 -->
<g id="edge15" class="edge">
<title>Node_Ja_109:e&#45;&gt;Node_Ja_102:header</title>
<g id="a_edge15"><a xlink:title="Ja_109 &#45;&#45;&gt; Ja_102">
<path fill="none" stroke="#000000" d="M362,-254C402.6806,-254 400.8506,-301.1893 434.5568,-308.9313"/>
<polygon fill="#000000" stroke="#000000" points="434.1832,-312.4112 444.5,-310 434.9313,-305.4513 434.1832,-312.4112"/>
</a>
</g>
</g>
<!-- Node_Ja_106 -->
<g id="node7" class="node">
<title>Node_Ja_106</title>
<g id="a_node7"><a xlink:title="email.GetEmailRequest">
<polygon fill="#fffaf0" stroke="transparent" points="265.5,-452 265.5,-484 354.5,-484 354.5,-452 265.5,-452"/>
<polygon fill="#e31a1c" stroke="transparent" points="267,-468 267,-483 354,-483 354,-468 267,-468"/>
<text text-anchor="start" x="269" y="-474" font-family="Ubuntu" font-weight="bold" font-size="10.00" fill="#000000">GetEmailRequest</text>
<text text-anchor="start" x="273" y="-458" font-family="Ubuntu" font-size="10.00" fill="#000000">1</text>
<text text-anchor="start" x="283" y="-458" font-family="Ubuntu" font-size="10.00" fill="#000000">email_id</text>
<polygon fill="#a6cee3" stroke="transparent" points="322,-453 322,-468 354,-468 354,-453 322,-453"/>
<text text-anchor="start" x="324" y="-459" font-family="Ubuntu" font-style="italic" font-size="10.00" fill="#000000">uint64</text>
<polygon fill="none" stroke="#000000" points="265.5,-452 265.5,-484 354.5,-484 354.5,-452 265.5,-452"/>
</a>
</g>
</g>
<!-- Node_Ja_112 -->
<g id="node8" class="node">
<title>Node_Ja_112</title>
<g id="a_node8"><a xlink:title="email.EmailResponse">
<polygon fill="#fffaf0" stroke="transparent" points="229,-143.5 229,-220.5 391,-220.5 391,-143.5 229,-143.5"/>
<polygon fill="#e31a1c" stroke="transparent" points="230,-204 230,-219 390,-219 390,-204 230,-204"/>
<text text-anchor="start" x="316" y="-210" font-family="Ubuntu" font-weight="bold" font-size="10.00" fill="#000000">EmailResponse</text>
<text text-anchor="start" x="249" y="-194" font-family="Ubuntu" font-size="10.00" fill="#000000">1</text>
<text text-anchor="start" x="259" y="-194" font-family="Ubuntu" font-size="10.00" fill="#000000">status</text>
<polygon fill="#a6cee3" stroke="transparent" points="289,-189 289,-204 390,-204 390,-189 289,-189"/>
<text text-anchor="start" x="366" y="-195" font-family="Ubuntu" font-style="italic" font-size="10.00" fill="#000000">int64</text>
<text text-anchor="start" x="249" y="-179" font-family="Ubuntu" font-size="10.00" fill="#000000">2</text>
<text text-anchor="start" x="259" y="-179" font-family="Ubuntu" font-size="10.00" fill="#000000">count</text>
<polygon fill="#a6cee3" stroke="transparent" points="289,-174 289,-189 390,-189 390,-174 289,-174"/>
<text text-anchor="start" x="366" y="-180" font-family="Ubuntu" font-style="italic" font-size="10.00" fill="#000000">int64</text>
<text text-anchor="start" x="249" y="-164" font-family="Ubuntu" font-size="10.00" fill="#000000">3</text>
<text text-anchor="start" x="259" y="-164" font-family="Ubuntu" font-size="10.00" fill="#000000">info</text>
<polygon fill="#a6cee3" stroke="transparent" points="289,-159 289,-174 390,-174 390,-159 289,-159"/>
<text text-anchor="start" x="363" y="-165" font-family="Ubuntu" font-style="italic" font-size="10.00" fill="#000000">string</text>
<text text-anchor="start" x="232" y="-149" font-family="Ubuntu" font-size="10.00" fill="#000000">[...]</text>
<text text-anchor="start" x="249" y="-149" font-family="Ubuntu" font-size="10.00" fill="#000000">4</text>
<text text-anchor="start" x="259" y="-149" font-family="Ubuntu" font-size="10.00" fill="#000000">data</text>
<polygon fill="#bdbdbd" stroke="transparent" points="289,-144 289,-159 390,-159 390,-144 289,-144"/>
<text text-anchor="start" x="291" y="-150" font-family="Ubuntu" font-weight="bold" font-size="10.00" fill="#000000">google.protobuf.Any</text>
<polygon fill="none" stroke="#000000" points="229,-143.5 229,-220.5 391,-220.5 391,-143.5 229,-143.5"/>
</a>
</g>
</g>
<!-- Node_Ja_121 -->
<g id="node9" class="node">
<title>Node_Ja_121</title>
<g id="a_node9"><a xlink:title="google.protobuf.Any">
<polygon fill="#d9d9d9" stroke="transparent" points="498.5,-135 498.5,-167 598.5,-167 598.5,-135 498.5,-135"/>
<polygon fill="#969696" stroke="transparent" points="499.5,-151 499.5,-166 597.5,-166 597.5,-151 499.5,-151"/>
<text text-anchor="start" x="501.5" y="-156" font-family="Ubuntu" font-size="10.00" fill="#000000">google.protobuf.Any</text>
<polygon fill="#d9d9d9" stroke="transparent" points="499.5,-136 499.5,-151 597.5,-151 597.5,-136 499.5,-136"/>
<text text-anchor="start" x="501.5" y="-141" font-family="Ubuntu" font-size="10.00" fill="#000000">this type is missing</text>
<polygon fill="none" stroke="#000000" points="498.5,-135 498.5,-167 598.5,-167 598.5,-135 498.5,-135"/>
</a>
</g>
</g>
<!-- Node_Ja_112&#45;&gt;Node_Ja_121 -->
<g id="edge10" class="edge">
<title>Node_Ja_112:e&#45;&gt;Node_Ja_121</title>
<g id="a_edge10"><a xlink:title="Ja_112 &#45;&#45;&gt; Ja_121">
<path fill="none" stroke="#737373" d="M390,-151C419.5317,-151 452.1585,-151 480.0953,-151"/>
<polygon fill="#737373" stroke="#737373" points="480.1612,-154.5001 490.1611,-151 480.1611,-147.5001 480.1612,-154.5001"/>
</a>
</g>
</g>
<!-- Node_Ja_108 -->
<g id="node10" class="node">
<title>Node_Ja_108</title>
<g id="a_node10"><a xlink:title="email.CreateEmailRequest">
<polygon fill="#fffaf0" stroke="transparent" points="258.5,-320 258.5,-352 361.5,-352 361.5,-320 258.5,-320"/>
<polygon fill="#e31a1c" stroke="transparent" points="260,-336 260,-351 361,-351 361,-336 260,-336"/>
<text text-anchor="start" x="262" y="-342" font-family="Ubuntu" font-weight="bold" font-size="10.00" fill="#000000">CreateEmailRequest</text>
<text text-anchor="start" x="287" y="-326" font-family="Ubuntu" font-size="10.00" fill="#000000">1</text>
<text text-anchor="start" x="297" y="-326" font-family="Ubuntu" font-size="10.00" fill="#000000">email</text>
<polygon fill="#fb9a99" stroke="transparent" points="327,-321 327,-336 361,-336 361,-321 327,-321"/>
<text text-anchor="start" x="333" y="-327" font-family="Ubuntu" font-weight="bold" font-size="10.00" fill="#000000">Email</text>
<polygon fill="none" stroke="#000000" points="258.5,-320 258.5,-352 361.5,-352 361.5,-320 258.5,-320"/>
</a>
</g>
</g>
<!-- Node_Ja_108&#45;&gt;Node_Ja_102 -->
<g id="edge14" class="edge">
<title>Node_Ja_108:e&#45;&gt;Node_Ja_102:header</title>
<g id="a_edge14"><a xlink:title="Ja_108 &#45;&#45;&gt; Ja_102">
<path fill="none" stroke="#000000" d="M361,-328C395.2562,-328 404.7675,-313.344 434.1907,-310.4815"/>
<polygon fill="#000000" stroke="#000000" points="434.6742,-313.9628 444.5,-310 434.3476,-306.9704 434.6742,-313.9628"/>
</a>
</g>
</g>
<!-- Node_Ja_110 -->
<g id="node11" class="node">
<title>Node_Ja_110</title>
<g id="a_node11"><a xlink:title="email.DeleteEmailRequest">
<polygon fill="#fffaf0" stroke="transparent" points="257.5,-85 257.5,-117 362.5,-117 362.5,-85 257.5,-85"/>
<polygon fill="#e31a1c" stroke="transparent" points="259,-101 259,-116 362,-116 362,-101 259,-101"/>
<text text-anchor="start" x="261" y="-107" font-family="Ubuntu" font-weight="bold" font-size="10.00" fill="#000000">DeleteEmailRequest</text>
<text text-anchor="start" x="277" y="-91" font-family="Ubuntu" font-size="10.00" fill="#000000">1</text>
<text text-anchor="start" x="287" y="-91" font-family="Ubuntu" font-size="10.00" fill="#000000">email_id</text>
<polygon fill="#a6cee3" stroke="transparent" points="328,-86 328,-101 362,-101 362,-86 328,-86"/>
<text text-anchor="start" x="332" y="-92" font-family="Ubuntu" font-style="italic" font-size="10.00" fill="#000000">uint64</text>
<polygon fill="none" stroke="#000000" points="257.5,-85 257.5,-117 362.5,-117 362.5,-85 257.5,-85"/>
</a>
</g>
</g>
<!-- Node_Ja_107 -->
<g id="node14" class="node">
<title>Node_Ja_107</title>
<g id="a_node14"><a xlink:title="email.ListEmailsRequest">
<polygon fill="#fffaf0" stroke="transparent" points="246,-378.5 246,-425.5 374,-425.5 374,-378.5 246,-378.5"/>
<polygon fill="#e31a1c" stroke="transparent" points="247,-409 247,-424 373,-424 373,-409 247,-409"/>
<text text-anchor="start" x="283" y="-415" font-family="Ubuntu" font-weight="bold" font-size="10.00" fill="#000000">ListEmailsRequest</text>
<text text-anchor="start" x="253" y="-399" font-family="Ubuntu" font-size="10.00" fill="#000000">10</text>
<text text-anchor="start" x="268" y="-399" font-family="Ubuntu" font-size="10.00" fill="#000000">page</text>
<polygon fill="#a6cee3" stroke="transparent" points="341,-394 341,-409 373,-409 373,-394 341,-394"/>
<text text-anchor="start" x="343" y="-400" font-family="Ubuntu" font-style="italic" font-size="10.00" fill="#000000">uint64</text>
<text text-anchor="start" x="253" y="-384" font-family="Ubuntu" font-size="10.00" fill="#000000">11</text>
<text text-anchor="start" x="268" y="-384" font-family="Ubuntu" font-size="10.00" fill="#000000">items_per_page</text>
<polygon fill="#a6cee3" stroke="transparent" points="341,-379 341,-394 373,-394 373,-379 341,-379"/>
<text text-anchor="start" x="343" y="-385" font-family="Ubuntu" font-style="italic" font-size="10.00" fill="#000000">uint64</text>
<polygon fill="none" stroke="#000000" points="246,-378.5 246,-425.5 374,-425.5 374,-378.5 246,-378.5"/>
</a>
</g>
</g>
<!-- Node_Ja_111 -->
<g id="node15" class="node">
<title>Node_Ja_111</title>
<g id="a_node15"><a xlink:title="email.SendEmailRequest">
<polygon fill="#fffaf0" stroke="transparent" points="262,-27 262,-59 358,-59 358,-27 262,-27"/>
<polygon fill="#e31a1c" stroke="transparent" points="263,-43 263,-58 357,-58 357,-43 263,-43"/>
<text text-anchor="start" x="265" y="-49" font-family="Ubuntu" font-weight="bold" font-size="10.00" fill="#000000">SendEmailRequest</text>
<text text-anchor="start" x="274" y="-33" font-family="Ubuntu" font-size="10.00" fill="#000000">1</text>
<text text-anchor="start" x="284" y="-33" font-family="Ubuntu" font-size="10.00" fill="#000000">email_id</text>
<polygon fill="#a6cee3" stroke="transparent" points="324,-28 324,-43 357,-43 357,-28 324,-28"/>
<text text-anchor="start" x="327" y="-34" font-family="Ubuntu" font-style="italic" font-size="10.00" fill="#000000">uint64</text>
<polygon fill="none" stroke="#000000" points="262,-27 262,-59 358,-59 358,-27 262,-27"/>
</a>
</g>
</g>
<!-- Node_Ja_113 -->
<g id="node16" class="node">
<title>Node_Ja_113</title>
<g id="a_node16"><a xlink:title="EmailService">
<polygon fill="#ffd700" stroke="transparent" points="8,-159.5 8,-356.5 177,-356.5 177,-159.5 8,-159.5"/>
<polygon fill="#ff7f50" stroke="transparent" points="9.5,-340 9.5,-355 176.5,-355 176.5,-340 9.5,-340"/>
<text text-anchor="start" x="113.5" y="-346" font-family="Ubuntu" font-weight="bold" font-size="10.00" fill="#000000">EmailService</text>
<text text-anchor="start" x="11.5" y="-331" font-family="Ubuntu" font-weight="bold" font-size="10.00" fill="#000000">GetEmail</text>
<text text-anchor="start" x="98.5" y="-330" font-family="Ubuntu" font-size="10.00" fill="#000000">GetEmailRequest</text>
<polygon fill="#ff7f50" stroke="transparent" points="74.5,-310 74.5,-325 78.5,-325 78.5,-310 74.5,-310"/>
<polygon fill="#ff7f50" stroke="transparent" points="78.5,-310 78.5,-325 176.5,-325 176.5,-310 78.5,-310"/>
<text text-anchor="start" x="107.5" y="-315" font-family="Ubuntu" font-size="10.00" fill="#000000">EmailResponse</text>
<text text-anchor="start" x="11.5" y="-301" font-family="Ubuntu" font-weight="bold" font-size="10.00" fill="#000000">ListEmails</text>
<text text-anchor="start" x="93.5" y="-300" font-family="Ubuntu" font-size="10.00" fill="#000000">ListEmailsRequest</text>
<polygon fill="#ff7f50" stroke="transparent" points="74.5,-280 74.5,-295 78.5,-295 78.5,-280 74.5,-280"/>
<polygon fill="#ff7f50" stroke="transparent" points="78.5,-280 78.5,-295 176.5,-295 176.5,-280 78.5,-280"/>
<text text-anchor="start" x="107.5" y="-285" font-family="Ubuntu" font-size="10.00" fill="#000000">EmailResponse</text>
<text text-anchor="start" x="11.5" y="-271" font-family="Ubuntu" font-weight="bold" font-size="10.00" fill="#000000">CreateEmail</text>
<text text-anchor="start" x="84.5" y="-270" font-family="Ubuntu" font-size="10.00" fill="#000000">CreateEmailRequest</text>
<polygon fill="#ff7f50" stroke="transparent" points="74.5,-250 74.5,-265 78.5,-265 78.5,-250 74.5,-250"/>
<polygon fill="#ff7f50" stroke="transparent" points="78.5,-250 78.5,-265 176.5,-265 176.5,-250 78.5,-250"/>
<text text-anchor="start" x="107.5" y="-255" font-family="Ubuntu" font-size="10.00" fill="#000000">EmailResponse</text>
<text text-anchor="start" x="11.5" y="-241" font-family="Ubuntu" font-weight="bold" font-size="10.00" fill="#000000">UpdateEmail</text>
<text text-anchor="start" x="80.5" y="-240" font-family="Ubuntu" font-size="10.00" fill="#000000">UpdateEmailRequest</text>
<polygon fill="#ff7f50" stroke="transparent" points="74.5,-220 74.5,-235 78.5,-235 78.5,-220 74.5,-220"/>
<polygon fill="#ff7f50" stroke="transparent" points="78.5,-220 78.5,-235 176.5,-235 176.5,-220 78.5,-220"/>
<text text-anchor="start" x="107.5" y="-225" font-family="Ubuntu" font-size="10.00" fill="#000000">EmailResponse</text>
<text text-anchor="start" x="11.5" y="-211" font-family="Ubuntu" font-weight="bold" font-size="10.00" fill="#000000">DeleteEmail</text>
<text text-anchor="start" x="84.5" y="-210" font-family="Ubuntu" font-size="10.00" fill="#000000">DeleteEmailRequest</text>
<polygon fill="#ff7f50" stroke="transparent" points="74.5,-190 74.5,-205 78.5,-205 78.5,-190 74.5,-190"/>
<polygon fill="#ff7f50" stroke="transparent" points="78.5,-190 78.5,-205 176.5,-205 176.5,-190 78.5,-190"/>
<text text-anchor="start" x="107.5" y="-195" font-family="Ubuntu" font-size="10.00" fill="#000000">EmailResponse</text>
<text text-anchor="start" x="11.5" y="-181" font-family="Ubuntu" font-weight="bold" font-size="10.00" fill="#000000">SendEmail</text>
<text text-anchor="start" x="92.5" y="-180" font-family="Ubuntu" font-size="10.00" fill="#000000">SendEmailRequest</text>
<polygon fill="#ff7f50" stroke="transparent" points="74.5,-160 74.5,-175 78.5,-175 78.5,-160 74.5,-160"/>
<polygon fill="#ff7f50" stroke="transparent" points="78.5,-160 78.5,-175 176.5,-175 176.5,-160 78.5,-160"/>
<text text-anchor="start" x="107.5" y="-165" font-family="Ubuntu" font-size="10.00" fill="#000000">EmailResponse</text>
<polygon fill="none" stroke="#000000" points="8,-159.5 8,-356.5 177,-356.5 177,-159.5 8,-159.5"/>
</a>
</g>
</g>
<!-- Node_Ja_113&#45;&gt;Node_Ja_109 -->
<g id="edge12" class="edge">
<title>Node_Ja_113:e&#45;&gt;Node_Ja_109:header</title>
<g id="a_edge12"><a xlink:title="Ja_113 &#45;&#45;&gt; Ja_109">
<path fill="none" stroke="#000000" d="M176.5,-242C213.7751,-242 216.785,-277.6205 247.9031,-284.0211"/>
<polygon fill="#000000" stroke="#000000" points="247.7089,-287.5186 258,-285 248.3844,-280.5513 247.7089,-287.5186"/>
</a>
</g>
</g>
<!-- Node_Ja_113&#45;&gt;Node_Ja_106 -->
<g id="edge11" class="edge">
<title>Node_Ja_113:e&#45;&gt;Node_Ja_106:header</title>
<g id="a_edge11"><a xlink:title="Ja_113 &#45;&#45;&gt; Ja_106">
<path fill="none" stroke="#000000" d="M176.5,-333C227.5942,-333 190.2643,-398.1841 221,-439 234.4402,-456.8481 239.3212,-471.1295 256.6761,-474.9761"/>
<polygon fill="#000000" stroke="#000000" points="256.7034,-478.4959 267,-476 257.3943,-471.53 256.7034,-478.4959"/>
</a>
</g>
</g>
<!-- Node_Ja_113&#45;&gt;Node_Ja_112 -->
<g id="edge5" class="edge">
<title>Node_Ja_113:e&#45;&gt;Node_Ja_112:header</title>
<g id="a_edge5"><a xlink:title="Ja_113 &#45;&#45;&gt; Ja_112">
<path fill="none" stroke="#000000" d="M176.5,-318C225.3549,-318 184.3762,-227.1505 219.8965,-213.665"/>
<polygon fill="#000000" stroke="#000000" points="220.7022,-217.0795 230,-212 219.5639,-210.1727 220.7022,-217.0795"/>
</a>
</g>
</g>
<!-- Node_Ja_113&#45;&gt;Node_Ja_112 -->
<g id="edge7" class="edge">
<title>Node_Ja_113:e&#45;&gt;Node_Ja_112:header</title>
<g id="a_edge7"><a xlink:title="Ja_113 &#45;&#45;&gt; Ja_112">
<path fill="none" stroke="#000000" d="M176.5,-257C203.6868,-257 200.4692,-222.5469 220.0549,-213.9336"/>
<polygon fill="#000000" stroke="#000000" points="220.8518,-217.3443 230,-212 219.5158,-210.4729 220.8518,-217.3443"/>
</a>
</g>
</g>
<!-- Node_Ja_113&#45;&gt;Node_Ja_112 -->
<g id="edge8" class="edge">
<title>Node_Ja_113:e&#45;&gt;Node_Ja_112:header</title>
<g id="a_edge8"><a xlink:title="Ja_113 &#45;&#45;&gt; Ja_112">
<path fill="none" stroke="#000000" d="M176.5,-197C197.3361,-197 203.5182,-207.6787 219.7749,-211.0158"/>
<polygon fill="#000000" stroke="#000000" points="219.7106,-214.5257 230,-212 220.3814,-207.5579 219.7106,-214.5257"/>
</a>
</g>
</g>
<!-- Node_Ja_113&#45;&gt;Node_Ja_112 -->
<g id="edge9" class="edge">
<title>Node_Ja_113:e&#45;&gt;Node_Ja_112:header</title>
<g id="a_edge9"><a xlink:title="Ja_113 &#45;&#45;&gt; Ja_112">
<path fill="none" stroke="#000000" d="M176.5,-167C203.6868,-167 200.4692,-201.4531 220.0549,-210.0664"/>
<polygon fill="#000000" stroke="#000000" points="219.5158,-213.5271 230,-212 220.8518,-206.6557 219.5158,-213.5271"/>
</a>
</g>
</g>
<!-- Node_Ja_113&#45;&gt;Node_Ja_112 -->
<g id="edge13" class="edge">
<title>Node_Ja_113:e&#45;&gt;Node_Ja_112:header</title>
<g id="a_edge13"><a xlink:title="Ja_113 &#45;&#45;&gt; Ja_112">
<path fill="none" stroke="#000000" d="M176.5,-227C197.3361,-227 203.5182,-216.3213 219.7749,-212.9842"/>
<polygon fill="#000000" stroke="#000000" points="220.3814,-216.4421 230,-212 219.7106,-209.4743 220.3814,-216.4421"/>
</a>
</g>
</g>
<!-- Node_Ja_113&#45;&gt;Node_Ja_112 -->
<g id="edge23" class="edge">
<title>Node_Ja_113:e&#45;&gt;Node_Ja_112:header</title>
<g id="a_edge23"><a xlink:title="Ja_113 &#45;&#45;&gt; Ja_112">
<path fill="none" stroke="#000000" d="M176.5,-288C213.935,-288 193.5325,-225.582 220.123,-213.8787"/>
<polygon fill="#000000" stroke="#000000" points="220.8302,-217.307 230,-212 219.5221,-210.4303 220.8302,-217.307"/>
</a>
</g>
</g>
<!-- Node_Ja_113&#45;&gt;Node_Ja_108 -->
<g id="edge24" class="edge">
<title>Node_Ja_113:e&#45;&gt;Node_Ja_108:header</title>
<g id="a_edge24"><a xlink:title="Ja_113 &#45;&#45;&gt; Ja_108">
<path fill="none" stroke="#000000" d="M176.5,-273C221.4076,-273 213.0804,-333.3396 249.67,-342.7677"/>
<polygon fill="#000000" stroke="#000000" points="249.6558,-346.2907 260,-344 250.485,-339.34 249.6558,-346.2907"/>
</a>
</g>
</g>
<!-- Node_Ja_113&#45;&gt;Node_Ja_110 -->
<g id="edge6" class="edge">
<title>Node_Ja_113:e&#45;&gt;Node_Ja_110:header</title>
<g id="a_edge6"><a xlink:title="Ja_113 &#45;&#45;&gt; Ja_110">
<path fill="none" stroke="#000000" d="M176.5,-212C217.9651,-212 191.7921,-159.4323 221,-130 231.8313,-119.0855 237.2773,-112.2308 248.8072,-109.8964"/>
<polygon fill="#000000" stroke="#000000" points="249.3451,-113.3627 259,-109 248.7318,-106.3896 249.3451,-113.3627"/>
</a>
</g>
</g>
<!-- Node_Ja_113&#45;&gt;Node_Ja_107 -->
<g id="edge22" class="edge">
<title>Node_Ja_113:e&#45;&gt;Node_Ja_107:header</title>
<g id="a_edge22"><a xlink:title="Ja_113 &#45;&#45;&gt; Ja_107">
<path fill="none" stroke="#000000" d="M176.5,-303C232.3493,-303 193.0854,-403.1953 237.0455,-415.7197"/>
<polygon fill="#000000" stroke="#000000" points="236.6352,-419.1957 247,-417 237.5282,-412.2529 236.6352,-419.1957"/>
</a>
</g>
</g>
<!-- Node_Ja_113&#45;&gt;Node_Ja_111 -->
<g id="edge25" class="edge">
<title>Node_Ja_113:e&#45;&gt;Node_Ja_111:header</title>
<g id="a_edge25"><a xlink:title="Ja_113 &#45;&#45;&gt; Ja_111">
<path fill="none" stroke="#000000" d="M176.5,-182C229.2379,-182 185.2148,-110.7389 221,-72 232.6167,-59.4245 239.3934,-53.3495 252.9739,-51.5723"/>
<polygon fill="#000000" stroke="#000000" points="253.2158,-55.0643 263,-51 252.8167,-48.0757 253.2158,-55.0643"/>
</a>
</g>
</g>
</g>
</svg>
